<?xml version="1.0" standalone="no"?>
<!DOCTYPE svg PUBLIC "-//W3C//DTD SVG 20010904//EN"
 "http://www.w3.org/TR/2001/REC-SVG-20010904/DTD/svg10.dtd">
<svg version="1.0" xmlns="http://www.w3.org/2000/svg"
 width="1254.000000pt" height="1254.000000pt" viewBox="0 0 1254.000000 1254.000000"
 preserveAspectRatio="xMidYMid meet">

<g transform="translate(0.000000,1254.000000) scale(0.100000,-0.100000)"
fill="#000000" stroke="none">
<path d="M3420 9792 c-69 -54 -303 -234 -520 -401 -217 -166 -412 -317 -432
-334 -29 -25 -89 -132 -288 -520 -139 -268 -250 -494 -247 -501 3 -8 37 -57
76 -110 76 -103 604 -837 740 -1029 46 -64 87 -119 90 -122 8 -4 515 110 530
120 6 3 2 32 -9 68 -15 54 -202 642 -319 1007 l-40 125 156 475 c280 856 423
1303 417 1311 -11 18 -32 6 -154 -89z"/>
<path d="M8960 9882 c0 -16 216 -692 386 -1207 97 -291 179 -541 183 -555 6
-18 -12 -85 -66 -255 -145 -455 -304 -967 -301 -970 11 -9 533 -124 539 -118
3 5 92 127 196 273 104 146 307 428 451 627 144 199 262 366 262 372 0 10 -43
94 -366 712 l-144 276 -422 324 c-232 178 -482 370 -554 427 -119 92 -164 118
-164 94z"/>
<path d="M4270 8217 c-68 -84 -218 -265 -332 -403 l-208 -250 -154 -92 -154
-92 13 -57 c7 -32 30 -142 51 -245 24 -123 41 -188 49 -188 15 0 636 267 647
278 8 8 238 1146 238 1180 0 12 -6 22 -12 22 -7 -1 -69 -69 -138 -153z"/>
<path d="M8120 8346 c0 -14 27 -157 59 -318 33 -161 85 -419 116 -573 31 -154
60 -283 64 -288 7 -7 519 -230 604 -262 26 -10 49 -16 52 -14 5 6 95 455 95
477 0 12 -49 47 -151 107 l-151 90 -282 340 c-155 187 -304 368 -331 402 -53
67 -75 78 -75 39z"/>
<path d="M4867 6728 c-59 -71 -538 -660 -710 -874 l-137 -171 0 -313 0 -313
507 -511 c278 -281 568 -573 643 -648 l136 -138 964 0 964 0 115 118 c63 64
353 356 643 647 l528 530 0 312 0 311 -62 80 c-73 94 -425 529 -660 817 l-164
200 -1361 3 -1361 2 -45 -52z m785 -1117 l28 -31 0 -183 0 -183 -31 -30 -30
-29 -165 -4 -164 -3 -35 35 -35 35 0 180 c0 168 1 181 21 206 12 15 31 32 43
36 11 5 93 8 180 6 l159 -3 29 -32z m1635 4 c26 -29 37 -139 31 -300 -3 -99
-5 -107 -31 -133 l-27 -27 -170 0 -169 0 -30 29 -31 30 0 184 0 184 35 35 36
36 167 -7 c160 -6 168 -8 189 -31z"/>
<path d="M3248 6667 c-110 -40 -198 -77 -198 -84 0 -7 82 -124 183 -260 l183
-247 274 -118 c151 -65 275 -118 276 -118 5 0 239 294 239 301 0 10 -138 76
-393 189 l-123 54 -110 178 c-60 98 -115 178 -122 178 -7 -1 -101 -33 -209
-73z"/>
<path d="M9012 6650 c-31 -49 -81 -129 -111 -176 l-54 -87 -96 -45 c-53 -25
-168 -78 -256 -117 -87 -40 -161 -77 -162 -82 -4 -11 237 -305 247 -301 4 2
128 55 275 118 l267 115 182 248 c99 136 182 253 184 260 2 8 -69 38 -198 85
-110 39 -205 72 -210 72 -6 0 -36 -40 -68 -90z"/>
<path d="M9915 5653 c-244 -16 -853 -53 -945 -58 -63 -3 -130 -8 -147 -11
l-33 -5 0 -191 0 -191 128 7 c184 10 801 36 843 36 34 0 52 -18 395 -377 525
-554 512 -541 524 -523 6 9 10 142 10 331 l0 317 -37 33 c-21 17 -181 168
-356 333 -175 166 -322 301 -325 302 -4 0 -29 -1 -57 -3z"/>
<path d="M2365 5469 c-104 -99 -263 -249 -353 -332 l-162 -152 2 -324 c2 -224
6 -325 14 -328 6 -2 153 146 326 329 174 183 369 389 435 457 l118 124 395
-17 c217 -10 442 -18 500 -19 l105 -2 0 190 0 190 -525 32 c-289 17 -556 32
-595 32 l-70 1 -190 -181z"/>
<path d="M3513 4772 l-372 -97 -187 -215 c-102 -118 -226 -261 -275 -318 l-89
-103 2 -327 c3 -293 5 -327 19 -330 12 -2 84 83 231 270 117 150 288 366 378
479 l165 205 375 108 c206 59 378 110 382 114 8 8 -239 313 -251 311 -3 0
-173 -44 -378 -97z"/>
<path d="M8516 4719 c-70 -84 -123 -156 -119 -160 5 -4 152 -48 328 -99 176
-50 345 -99 375 -108 l54 -17 291 -365 c160 -201 330 -416 379 -478 58 -75 94
-112 105 -110 14 3 16 36 19 331 l2 328 -242 277 c-134 153 -259 296 -278 318
l-35 41 -360 92 c-198 51 -367 95 -377 97 -11 3 -52 -39 -142 -147z"/>
</g>
</svg>
